<svg xmlns="http://www.w3.org/2000/svg" class="{{ .class | default "w-6 h-6" }}" viewBox="0 0 300 300" stroke="currentColor" fill="none" stroke-linejoin="round" stroke-linecap="round"><path d="M70.3 40c-.4-1.6-.1-4.7 1-8.2 1-3.6 3-7.6 6-11.3 3-3.7 7-7 12.4-9 5.3-2.1 12-2.9 20.3-1.5l32.5 7.5L175 25l32.5 7.5L240 40v220l-40-9.2-40.1-9.1-40.1-9.2-40.1-9.2" stroke="none"/><path d="M64.4 41.3a37.4 37.4 0 018.2-24.6c6.6-8.2 20.3-15 38.8-12.5l130 30 4.6 1v232.3l-7.3-1.6-160.3-36.7 2.6-11.7 153 35V44.8l-125.3-29c-14.6-3-21.5 2-26.8 8.5-5.1 6.2-6.5 12.3-5.7 14.4z" stroke="none"/><path d="M207.2 71.6v218a9 9 0 01-2.4 5.6 6.7 6.7 0 01-6.1 1.6l-130-30c-2.5-.7-4-1.9-4.8-3.3-.7-1.4-.7-3.1-.7-5v-221A43 43 0 0172 16C78.8 7.7 93 .8 111.8 3l130 30c1.8.6 3.2 1.5 4 2.6a7.9 7.9 0 011.4 4.3v220c0 2.3-1 4.4-2.5 5.6a7.5 7.5 0 01-6 1.2l-27.1-6.2 13.8-11.2 7.8 1.8V45.6L108.7 16.8a27 27 0 00-16.3.6 23 23 0 00-9.5 7.5c-3.3 4-4.5 7-5.3 9.6l123.8 28.6c2 .5 3.6 1.6 4.5 3 1 1.5 1.4 3.4 1.3 5.5zM125 207.9c-.5.9-.3 1.4.8 1.6l16.2 3.6c1 .2 1.2-.2.7-1.2l-8-16.5c-.5-1-1-1.2-1.5-.4l-8.2 13zm25.3 13.8c-1-.8-1.4-.6-1.4.5v17c0 1 .4 1.4 1.3 1l14-5.3c1-.4 1-.9 0-1.6l-14-11.6zm-17.5 37.5c.5 1 1 1.2 1.6.3l8.2-12.9c.5-.8.2-1.3-.8-1.5l-16.2-3.6c-1-.3-1.3.1-.8 1.2l8 16.5zM103 219.7c-.8.3-.8.9 0 1.6l14 11.6c.9.7 1.4.6 1.4-.5v-17c0-1-.4-1.4-1.3-1l-14 5.3zm-9-148l-.5 92.9a4 4 0 003 3.8l75.4 17.8c1.6.3 3-.7 3-2.4l.3-93a4 4 0 00-2.9-3.7L96.8 69.3c-1.6-.4-2.9.7-2.9 2.4z" fill="currentColor" stroke="none"/><path d="M206 65.2v232.3L64 264.8V32.5zm-130 190l118 27.3V74.8L76 47.5z" stroke="none"/></svg>