<svg xmlns="http://www.w3.org/2000/svg" class="{{ .class | default "w-6 h-6" }}" viewBox="0 0 300 300" stroke="currentColor" fill="none" stroke-linejoin="round" stroke-linecap="round"><path d="M102.81 9.81s87.81 21.28 138.77 31.25c.9 71.79.68 143.59-.67 215.38l-41.13-10.07-1.22-176.22L72.47 39.71c-.82-.27-1.73-30.35 30.34-29.9z" fill="#bada55" stroke="none"/><path d="M70.3 40C68.84 33.47 77 4.47 110 10l130 30v220L79.69 223.33" stroke-width="12" stroke="#4b5563"/><path d="M82.47 38.88c-5.41-1.03 3.69-23.92 22.06-21.08l116.61 27.06c1.8.49 3.08 1.58 2.92 5.99l-.66 195.71-23.87 18.76-.96-199.95-116.1-26.49z" fill="#fef3c7" stroke="none"/><path d="M70 40l130 30v220L70 260V40z" stroke-width="12" stroke="#4b5563" fill="#bada55"/><path d="M95 72.48v93.92l80 17.52V90L95 72.48z" stroke-width="4" stroke="#4b5563" fill="#fff"/><g stroke-width="3" stroke="#4b5563" fill="#4b5563"><path d="M128.36 203.17l5.7-10.93 5.62 13.56zM152.32 221.68l11.68 8.74-11.45 3.64zM129.08 240.78l11.51 2.62-5.59 10.82-5.92-13.44zM116.57 225.63l-11.71-8.98 11.65-3.26z"/></g></svg>