<svg viewBox="0 0 300 300" xmlns="http://www.w3.org/2000/svg" stroke="currentColor" fill="none" stroke-linejoin="round" stroke-linecap="round"><path d="M70.3 40c-.36-1.63-.13-4.67.94-8.22 1.08-3.55 2.99-7.61 5.99-11.3 2.99-3.69 7.06-7 12.44-9.04C95.05 9.4 101.75 8.62 110 10l32.5 7.5L175 25l32.5 7.5L240 40v220l-40.07-9.16-40.08-9.17-40.08-9.17-40.08-9.17" stroke="none"/><path d="M64.44 41.31c-.75-4.48 1.25-16.13 8.13-24.61 6.67-8.22 20.3-14.96 38.78-12.55l130 30 4.65 1.08v232.3l-7.34-1.68-160.31-36.67 2.68-11.7L234 252.47V44.77L108.65 15.85c-14.52-3.12-21.47 1.88-26.76 8.41-5.09 6.27-6.44 12.38-5.73 14.43z" stroke="none"/><path d="M207.22 71.59v218.08c-.16 1.95-1.02 4.12-2.41 5.49-1.4 1.39-3.66 2.16-6.12 1.66L68.7 266.83c-2.53-.72-4.08-1.89-4.77-3.31-.69-1.41-.71-3.16-.71-4.96l.04-221.09c.51-5.64 3.22-14.53 8.75-21.4C78.85 7.72 93.03.81 111.79 3.18l130.04 30c1.74.5 3.17 1.42 4.02 2.55.86 1.15 1.3 2.73 1.37 4.27v219.98c-.01 2.3-1.04 4.42-2.56 5.61-1.52 1.19-3.82 1.67-6 1.23l-27.09-6.18 13.82-11.21 7.83 1.79V45.57L108.65 16.83c-7.11-1.55-12.17-1.09-16.25.54-4.04 1.6-6.91 4.3-9.51 7.52-3.27 3.99-4.52 6.98-5.24 9.65l123.74 28.55c1.99.52 3.61 1.63 4.54 3.07.92 1.43 1.33 3.38 1.29 5.43zM125 207.93c-.52.82-.27 1.34.76 1.57l16.19 3.59c1.03.23 1.29-.18.78-1.23l-8.02-16.49c-.51-1.04-1.02-1.16-1.54-.34l-8.17 12.9zm25.28 13.75c-.89-.74-1.34-.57-1.35.51l-.08 16.96c-.01 1.08.44 1.45 1.33 1.1l14.06-5.36c.89-.35.9-.89.01-1.62l-13.97-11.59zm-17.45 37.51c.51 1.04 1.03 1.16 1.55.34l8.17-12.9c.51-.82.26-1.34-.77-1.57l-16.18-3.59c-1.03-.23-1.29.18-.78 1.23l8.01 16.49zm-29.78-39.51c-.9.34-.9.88-.01 1.62l13.97 11.59c.89.74 1.34.57 1.34-.51l.09-16.96c0-1.08-.44-1.45-1.34-1.11l-14.05 5.37zM93.92 71.69l-.38 92.91c-.01 1.7 1.29 3.39 2.9 3.77l75.5 17.78c1.61.38 2.92-.69 2.93-2.39l.38-92.91c.01-1.7-1.3-3.39-2.91-3.77L96.85 69.3c-1.61-.38-2.93.69-2.93 2.39z" fill="currentColor" stroke="none"/><path d="M206 65.23v232.31L64 264.77V32.46zm-130 190l118 27.23V74.77L76 47.54z" stroke="none"/></svg>