<svg viewBox="0 0 300 300" xmlns="http://www.w3.org/2000/svg" stroke="currentColor" fill="none" stroke-linejoin="round" stroke-linecap="round"><path d="M102.81 9.81s87.81 21.28 138.77 31.25c.9 71.79.68 143.59-.67 215.38l-41.13-10.07-1.22-176.22L72.47 39.71c-.82-.27-1.73-30.35 30.34-29.9z" fill="#bada55" stroke="none"/><path d="M70.3 40C68.84 33.47 77 4.47 110 10l130 30v220L79.69 223.33" stroke-width="12" stroke="#4b5563"/><path d="M82.47 38.88c-5.41-1.03 3.69-23.92 22.06-21.08l116.61 27.06c1.8.49 3.08 1.58 2.92 5.99l-.66 195.71-23.87 18.76-.96-199.95-116.1-26.49z" fill="#fef3c7" stroke="none"/><path d="M70 40l130 30v220L70 260V40z" stroke-width="12" stroke="#4b5563" fill="#bada55"/><path d="M97.55 25.52l110.49 25.02M90.46 32.61l108.41 24.18" fill="#fde68a" stroke-width="4" stroke="#4b5563"/><path d="M95 72.48L175 90v93.92L95 166.4V72.48z" stroke-width="4" stroke="#4b5563" fill="#fff"/><g stroke-width="3" stroke="#4b5563"><path d="M128.36 203.17l5.7-10.93 5.62 13.56zm23.96 18.51l11.68 8.74-11.45 3.64zm-23.24 19.1l11.51 2.62-5.59 10.82-5.92-13.44zm-12.51-15.15l-11.71-8.98 11.65-3.26z" fill="#4b5563"/><path d="M122.11 203.08l-.31-20.68 24.45 5.5.2 20.67m4.07 5.91l19.76 4.69c.13 8.6.2 17.13.21 25.59l-19.56-4.48m-4.17 4.17l.3 18.02-24.34-5.7-.31-18.13m-4.68-5.91l-19.76-4.78-.1-25.51 19.55 4.48"/></g><path d="M113.71 90.02l-10.96 2.49 10.82 7.63m16.89-13.24l-8.27 21.49m15.1-13.17l12.23 8.07-12.08 2.52" stroke-width="3" stroke="#4b5563"/></svg>